<svg width="157" height="162" viewBox="0 0 157 162" fill="none" xmlns="http://www.w3.org/2000/svg">
<path d="M54.8213 89.9414C55.1885 89.9415 55.5677 90.0609 55.8975 90.1943C56.2504 90.3372 56.6532 90.5406 57.0986 90.793C57.9911 91.2987 59.1279 92.0434 60.499 93.0146C63.2502 94.9634 65.8316 97.028 68.2422 99.209C69.4482 100.3 70.3839 101.248 71.0264 102.043C71.3473 102.44 71.6139 102.822 71.8037 103.184C71.9865 103.532 72.1406 103.941 72.1406 104.371V104.665L71.9824 104.912C70.8545 106.667 68.7839 107.833 66.0205 108.556V122.712C66.2471 134.719 66.5871 144.279 67.0391 151.397L67.0576 151.687L66.9189 151.939C66.4599 152.781 65.6135 153.529 64.5391 154.216C63.4467 154.914 62.0238 155.607 60.292 156.3L60.291 156.299C56.8127 157.803 53.5687 158.581 50.5713 158.581C49.2391 158.581 48.054 158.264 47.2041 157.455C46.345 156.637 46.001 155.481 46.001 154.181V154.091L46.0176 154.002V153.998L46.0195 153.987C46.0198 153.986 46.0211 153.982 46.0215 153.979C46.0218 153.978 46.0221 153.976 46.0225 153.975V153.971L46.0234 153.969C46.0281 153.943 46.0221 153.972 46.0273 153.943C46.0302 153.928 46.0498 153.822 46.0596 153.769C46.0643 153.743 46.1004 153.542 46.1123 153.477C46.1383 153.334 46.1545 153.249 46.1875 153.067C46.2379 152.79 46.3207 152.332 46.3994 151.898L46.501 151.34C46.5084 151.299 46.5023 151.331 46.5098 151.29C46.51 151.289 46.5189 151.244 46.5195 151.24C46.526 151.205 46.5315 151.175 46.5381 151.139C46.5392 151.133 46.5732 150.941 46.5752 150.931C46.5877 150.862 46.6022 150.786 46.6152 150.715C46.6173 150.703 46.6229 150.672 46.625 150.66C46.6253 150.659 46.6344 150.606 46.6348 150.604C46.6352 150.602 46.6548 150.495 46.6553 150.492L46.6807 150.353V147.871H30.8311V154.521C30.8311 155.248 30.3499 155.829 29.916 156.231C29.4443 156.669 28.7848 157.117 27.9785 157.58C26.4033 158.663 24.4448 159.544 22.1279 160.239C19.7723 160.946 17.409 161.301 15.041 161.301C13.7007 161.301 12.5302 160.89 11.7227 159.921C11.0025 159.057 10.6407 158.036 10.6406 156.901V156.855L10.6455 156.811C11.0963 151.852 11.4348 145.528 11.6611 137.832V126.471C11.6611 112.218 10.9254 100.719 9.46484 91.9551L9.16699 90.1689L30.543 99.1211H45.6758L49.1162 94.8994L49.1475 94.8594L49.1836 94.8242C49.7136 94.2942 50.4816 93.4189 51.4971 92.1777C52.0354 91.5198 52.5635 90.9828 53.082 90.6025C53.5903 90.2298 54.1804 89.9414 54.8213 89.9414ZM77.2812 138.881V94.5107C77.2812 80.2582 76.545 68.7015 75.084 59.8232L74.7969 58.0791L99.3828 67.8408H126.411V20.3711H105.665L104.161 20.3994C96.6157 20.5841 88.6668 21.3627 80.3135 22.7373L79.6094 22.8535L73.7764 12.0508L75.6689 12.2568C81.8661 12.9329 89.3739 13.3851 98.1963 13.6113H125.228L128.838 9.05957L128.84 9.05664C129.303 8.47819 129.93 7.73562 130.719 6.83398C131.509 5.8183 132.159 5.04916 132.654 4.55371L132.693 4.51465L132.736 4.48047C133.381 3.96487 134.109 3.58117 134.891 3.58105C135.275 3.58105 135.673 3.71977 136.01 3.86523C136.376 4.02331 136.799 4.24789 137.271 4.52832C138.214 5.08784 139.426 5.91249 140.9 6.98926L142.011 7.77148C144.577 9.61154 147.012 11.5832 149.317 13.6865L149.798 14.1084C150.886 15.0763 151.743 15.9218 152.354 16.6396C152.703 17.0493 152.993 17.4409 153.199 17.8086C153.396 18.1589 153.571 18.5821 153.571 19.0312V19.3584L153.377 19.6221C152.035 21.4519 149.767 22.6695 146.771 23.3994V40.7686C147.11 55.9514 147.508 67.6686 147.96 75.9258L147.975 76.21L147.839 76.46C147.372 77.3165 146.466 78.0811 145.317 78.7881C144.143 79.5108 142.596 80.2434 140.697 80.9912L140.682 80.9971C136.976 82.3866 133.568 83.1006 130.471 83.1006H126.411V74.7705H97.9814V134.121C97.9815 135.697 98.3507 136.4 98.7266 136.688C99.0167 136.861 99.5345 137.041 100.365 137.171C101.203 137.302 102.281 137.371 103.611 137.371V138.371L102.634 138.357C100.452 138.295 98.9643 138.016 98.1709 137.521C97.4273 136.989 97.0318 135.96 96.9854 134.433L96.9814 134.121V73.7705H127.411V82.1006H130.471C133.233 82.1006 136.295 81.503 139.655 80.3076L140.331 80.0605C143.837 78.6793 145.999 77.3979 146.815 76.2158L146.961 75.9814C146.508 67.7081 146.111 55.9777 145.771 40.791V22.6006C149.057 21.9206 151.325 20.7312 152.571 19.0312C152.571 18.238 151.268 16.7079 148.661 14.4414C146.054 12.0614 143.278 9.85055 140.331 7.81055C137.569 5.79229 135.803 4.72028 135.032 4.59375L134.891 4.58105C134.437 4.58117 133.928 4.8077 133.361 5.26074L132.989 5.6543C132.586 6.10049 132.086 6.70585 131.491 7.4707C130.698 8.37724 130.074 9.11403 129.621 9.68066L125.711 14.6113H98.1709L94.917 14.5156C87.4671 14.2677 81.0147 13.846 75.5605 13.251L80.1514 21.751C89.1046 20.2777 97.6048 19.4844 105.651 19.3711H127.411V68.8408H99.1914L76.0713 59.6611C77.5446 68.6144 78.2812 80.231 78.2812 94.5107V138.881L78.2881 139.76C78.3612 144.083 78.9826 147.36 80.1514 149.591C81.398 152.084 83.5513 153.841 86.6113 154.861C89.7846 155.881 94.3179 156.391 100.211 156.391H118.741L120.522 156.387C129.301 156.34 136.187 155.945 141.181 155.201C146.621 154.408 150.418 153.104 152.571 151.291C154.696 149.697 155.825 147.605 155.958 145.016L155.971 144.491C155.971 142.791 155.523 141.34 154.626 140.138L154.441 139.901C153.421 138.655 151.608 137.521 149.001 136.501L148.491 112.021H146.791C143.278 124.941 140.727 132.761 139.141 135.481C138.574 136.388 137.95 137.011 137.271 137.351C136.704 137.691 135.797 137.918 134.551 138.031C131.151 138.258 126.448 138.371 120.441 138.371V137.371C126.433 137.371 131.106 137.257 134.473 137.033C135.673 136.923 136.39 136.713 136.757 136.493L136.789 136.474L136.824 136.457C137.284 136.227 137.782 135.765 138.287 134.959C139.019 133.697 140.022 131.164 141.293 127.266C142.561 123.378 144.072 118.211 145.826 111.759L146.026 111.021H149.471L149.986 135.822C152.342 136.807 154.127 137.938 155.215 139.268C156.399 140.715 156.971 142.478 156.971 144.491C156.971 147.632 155.695 150.19 153.188 152.077C150.808 154.067 146.785 155.393 141.327 156.189L141.328 156.19C135.929 156.995 128.392 157.391 118.741 157.391H100.211C94.2805 157.391 89.625 156.881 86.3047 155.813L86.2949 155.81C83.0261 154.72 80.6409 152.806 79.2568 150.038C77.904 147.444 77.2812 143.685 77.2812 138.881ZM47.6807 105.051V141.941H29.8311V105.051H47.6807ZM30.8311 140.941H46.6807V106.051H30.8311V140.941ZM120.441 137.371V138.371H103.611V137.371H120.441ZM54.6514 66.9912C55.0267 66.9913 55.4001 67.1156 55.7197 67.2549C56.0587 67.4026 56.4347 67.6115 56.8408 67.8672C57.6543 68.3794 58.6674 69.1299 59.8701 70.1035C62.2771 71.9393 64.5131 73.9462 66.5791 76.125C67.6629 77.153 68.508 78.0528 69.0898 78.8184C69.3826 79.2035 69.625 79.5759 69.7979 79.9307C69.966 80.2757 70.1006 80.6704 70.1006 81.0811V81.2041L70.0713 81.3232C69.7869 82.461 69.1579 83.3707 68.1797 83.9727C67.2306 84.5566 66.0351 84.8008 64.6807 84.8008H40.3848C32.3937 84.9133 23.9435 85.7017 15.0332 87.168L14.3184 87.2852L13.9834 86.6426L8.70117 76.4844L10.5596 76.6865C16.7568 77.3626 24.2644 77.8148 33.0869 78.041H45.4551L48.8965 73.0342L48.9229 72.9961L48.9531 72.9609C49.4902 72.3164 50.0917 71.4968 50.7588 70.4961C51.4319 69.4864 52.0299 68.6979 52.5459 68.1729C53.0714 67.5302 53.7697 66.9912 54.6514 66.9912ZM54.6514 67.9912C54.1981 67.9912 53.7443 68.2742 53.291 68.8408L53.1152 69.0244C52.6938 69.483 52.1857 70.1585 51.5908 71.0508C50.9108 72.0707 50.2873 72.9206 49.7207 73.6006L45.9814 79.041H33.0605L29.8066 78.9453C22.357 78.6974 15.9052 78.2756 10.4512 77.6807L14.8711 86.1807C23.8244 84.7073 32.3245 83.9141 40.3711 83.8008H64.6807C67.1739 83.8008 68.6472 82.8943 69.1006 81.0811C69.1006 80.2877 68.0244 78.871 65.8711 76.8311C63.8311 74.6777 61.6212 72.6942 59.2412 70.8809C57.0096 69.0743 55.5251 68.1146 54.7881 68.002L54.6514 67.9912ZM54.6514 44.8906C55.0267 44.8907 55.4 45.0159 55.7197 45.1553C56.0587 45.303 56.4346 45.5118 56.8408 45.7676C57.6491 46.2765 58.654 47.0208 59.8467 47.9854C62.2622 49.8257 64.5067 51.8389 66.5791 54.0244C67.6631 55.0526 68.5079 55.9531 69.0898 56.7188C69.3826 57.104 69.625 57.4763 69.7979 57.8311C69.966 58.1761 70.1006 58.5707 70.1006 58.9814V59.1045L70.0713 59.2236C69.7868 60.3613 69.1578 61.2711 68.1797 61.873C67.2306 62.4569 66.035 62.7012 64.6807 62.7012H30.1943L29.3154 62.7295C24.8993 62.9119 20.1727 63.6809 15.1328 65.0459L14.3555 65.2568L8.70117 54.3838L10.5596 54.5869C16.7568 55.263 24.2644 55.7152 33.0869 55.9414H45.4551L48.8965 50.9346L48.9229 50.8965L48.9531 50.8604C49.4901 50.2159 50.0918 49.3969 50.7588 48.3965C51.4325 47.3859 52.0306 46.5964 52.5469 46.0713C53.0722 45.4293 53.7704 44.8906 54.6514 44.8906ZM54.6514 45.8906C54.198 45.8906 53.7443 46.1745 53.291 46.7412L53.1152 46.9238C52.6938 47.3825 52.1858 48.0587 51.5908 48.9512L51.0918 49.6846C50.6031 50.3857 50.1457 50.991 49.7207 51.501L45.9814 56.9414H33.0605L29.8066 56.8457C22.357 56.5978 15.9052 56.176 10.4512 55.5811L14.8711 64.0811C20.311 62.6077 25.4109 61.8145 30.1709 61.7012H64.6807L65.1367 61.6904C67.3543 61.5841 68.6755 60.6811 69.1006 58.9814C69.1006 58.1882 68.0242 56.7713 65.8711 54.7314C63.8312 52.5782 61.6211 50.5945 59.2412 48.7812C57.0096 46.9747 55.5251 46.015 54.7881 45.9023L54.6514 45.8906ZM62.7852 22.2871C63.1204 22.3148 63.4489 22.4334 63.7314 22.5605C64.0766 22.7159 64.4626 22.9355 64.8818 23.2051C65.7182 23.7427 66.7663 24.5305 68.0176 25.5537C70.6535 27.5039 73.064 29.6271 75.248 31.9238C76.3884 33.0082 77.2748 33.9495 77.8838 34.7412C78.1898 35.139 78.4429 35.5205 78.623 35.8809C78.7971 36.229 78.9414 36.6315 78.9414 37.0508V37.1816L78.9072 37.3086C78.6147 38.4055 77.9716 39.2673 76.9961 39.8301C76.0528 40.3743 74.8663 40.6006 73.5205 40.6006H27.8076C21.1885 40.7128 14.3373 41.4981 7.25293 42.96L6.51855 43.1123L6.16797 42.4492L0.863281 32.4521L2.73926 32.6572C8.93055 33.3326 16.4296 33.7843 25.2412 34.0107H52.9297L56.543 28.6709L56.5498 28.6602L56.5576 28.6494C57.1166 27.8668 57.7338 26.9691 58.4092 25.9561L58.415 25.9473L58.4219 25.9375C59.2195 24.7981 59.885 23.9432 60.4043 23.4238C61.0258 22.8024 61.7804 22.2814 62.6406 22.2812L62.7852 22.2871ZM62.6406 23.2812C62.1874 23.2814 61.6778 23.5645 61.1113 24.1309L60.9326 24.3174C60.4989 24.7884 59.9351 25.5195 59.2412 26.5107L58.2637 27.9561C57.952 28.4094 57.6544 28.8348 57.3711 29.2314L53.4609 35.0107H25.2412L21.9873 34.915C14.5373 34.6671 8.08508 34.2464 2.63086 33.6514L7.05078 41.9814C14.1908 40.5081 21.1043 39.7139 27.791 39.6006H73.5205C76.0138 39.6006 77.4881 38.7508 77.9414 37.0508C77.9412 36.2574 76.8075 34.784 74.541 32.6309C72.3877 30.3643 70.0079 28.2674 67.4014 26.3408C64.908 24.3008 63.3206 23.2812 62.6406 23.2812ZM54.1406 0.691406C54.5133 0.691406 54.889 0.813938 55.2119 0.951172C55.5555 1.09719 55.941 1.30401 56.3604 1.55859C57.2001 2.06844 58.2539 2.81731 59.5127 3.79004C62.0392 5.74239 64.3944 7.86726 66.5781 10.1641L67.3516 10.9561C68.0782 11.7208 68.6641 12.4037 69.1006 13.001C69.3916 13.3993 69.6322 13.7807 69.8027 14.1396C69.9678 14.4873 70.1006 14.8829 70.1006 15.291V15.4141L70.0713 15.5332C69.7869 16.6709 69.1579 17.5807 68.1797 18.1826C67.2306 18.7666 66.0351 19.0107 64.6807 19.0107H40.8955L39.3916 19.04C31.846 19.2247 23.8965 20.0033 15.543 21.3779L14.8281 21.4951L9.21191 10.6943L11.0693 10.8965C17.2666 11.5726 24.7741 12.0248 33.5967 12.251H44.4297L48.0391 6.91602L48.4248 6.35449C48.8414 5.76238 49.3507 5.07874 49.9512 4.30664C50.736 3.18781 51.3913 2.34703 51.9043 1.83398C52.5258 1.21253 53.2803 0.691549 54.1406 0.691406ZM54.1406 1.69141C53.6874 1.69155 53.1778 1.9746 52.6113 2.54102L52.4326 2.72656C51.9988 3.19758 51.4353 3.92932 50.7412 4.9209C49.948 5.94078 49.3244 6.79074 48.8711 7.4707L44.9609 13.251H33.5713L30.3174 13.1553C22.8674 12.9074 16.4152 12.4856 10.9609 11.8906L15.3809 20.3906C24.3342 18.9173 32.8342 18.1241 40.8809 18.0107H64.6807C67.1739 18.0107 68.6472 17.1043 69.1006 15.291C69.1006 14.4977 68.0243 13.0244 65.8711 10.8711C63.987 8.8878 61.9726 7.03452 59.8281 5.31152L58.9014 4.58105C56.5641 2.77494 55.0231 1.81516 54.2793 1.70215L54.1406 1.69141ZM12.6611 137.861C12.4345 145.568 12.094 151.915 11.6406 156.901L11.6543 157.235C11.7162 158.004 11.9953 158.686 12.4912 159.281C13.0225 159.919 13.8028 160.257 14.832 160.297L15.041 160.301C17.166 160.301 19.291 160.002 21.416 159.404L21.8408 159.281C24.1074 158.601 25.9779 157.751 27.4512 156.731C28.9389 155.881 29.7285 155.18 29.8213 154.629L29.8311 154.521V146.871H47.6807V150.441C47.2315 152.912 47.005 154.158 47.001 154.181C47.001 156.306 48.0469 157.435 50.1387 157.567L50.5713 157.581C53.4045 157.581 56.5211 156.844 59.9209 155.371C63.1084 154.096 65.1006 152.871 65.8975 151.695L66.041 151.461C65.5877 144.321 65.2472 134.745 65.0205 122.731V107.771C68.0804 107.091 70.1206 105.958 71.1406 104.371C71.1406 103.677 70.2296 102.462 68.4072 100.727L67.5713 99.9512C65.4887 98.0669 63.2756 96.2693 60.9326 94.5586L59.9209 93.8311C57.3704 92.0244 55.7168 91.0647 54.96 90.9521L54.8213 90.9414C54.1413 90.9414 53.2905 91.5639 52.2705 92.8105C51.2505 94.0572 50.4573 94.9646 49.8906 95.5312L46.1514 100.121H30.3408L10.4512 91.791C11.9245 100.631 12.6611 112.191 12.6611 126.471V137.861Z" fill="black"/>
</svg>
