<svg width="152" height="164" viewBox="0 0 152 164" fill="none" xmlns="http://www.w3.org/2000/svg">
<path d="M16.8809 126.091C16.8809 111.838 16.1455 100.282 14.6846 91.4033L14.3916 89.625L38.3096 99.5908H111.737L115.348 94.8828L115.354 94.874L115.36 94.8662C115.823 94.2877 116.451 93.5453 117.239 92.6436C118.03 91.6283 118.678 90.8596 119.174 90.3643L119.213 90.3242L119.256 90.29C119.9 89.7744 120.63 89.3906 121.411 89.3906C121.795 89.3907 122.193 89.5294 122.53 89.6748C122.896 89.8329 123.32 90.0585 123.792 90.3389C124.736 90.8991 125.95 91.7241 127.427 92.8027L128.575 93.625C131.225 95.5497 133.702 97.5631 136.007 99.666C137.325 100.812 138.346 101.8 139.045 102.62C139.394 103.03 139.682 103.421 139.889 103.789C140.085 104.139 140.261 104.562 140.261 105.011V105.338L140.067 105.603C138.746 107.404 136.607 108.675 133.801 109.509V124.535L133.931 129.365C134.24 140.305 134.594 148.938 134.989 155.269L135.01 155.605L134.823 155.886C134.324 156.634 133.357 157.269 132.177 157.845C130.955 158.441 129.335 159.05 127.337 159.679C123.427 161.057 119.972 161.77 116.991 161.771C115.565 161.771 114.309 161.464 113.402 160.676C112.469 159.864 112.081 158.698 112.081 157.371V157.271L112.101 157.175V157.172C112.101 157.168 112.102 157.167 112.104 157.161L112.111 157.122C112.116 157.097 112.131 157.022 112.143 156.962C112.148 156.937 112.16 156.876 112.167 156.843C112.174 156.809 112.173 156.81 112.181 156.773C112.182 156.768 112.187 156.741 112.188 156.735C112.19 156.727 112.191 156.726 112.192 156.717L112.195 156.702C112.196 156.7 112.196 156.698 112.196 156.696L112.366 155.847C112.387 155.744 112.4 155.679 112.422 155.567C112.433 155.511 112.441 155.476 112.452 155.418C112.458 155.39 112.461 155.37 112.467 155.341L112.575 154.799C112.575 154.797 112.58 154.777 112.58 154.776C112.581 154.773 112.581 154.769 112.582 154.766C112.583 154.762 112.584 154.758 112.585 154.754L112.603 154.664L112.621 154.571C112.667 154.339 112.71 154.125 112.761 153.872V151.401H37.5811V156.011C37.5811 156.771 37.1176 157.388 36.626 157.847C36.1152 158.323 35.4013 158.791 34.5312 159.257C32.8387 160.337 30.6579 161.21 28.0234 161.899C25.4488 162.717 22.9167 163.131 20.4307 163.131C19.001 163.131 17.7524 162.737 16.834 161.818L16.8018 161.786L16.7725 161.751C16.0524 160.887 15.6915 159.866 15.6914 158.731V158.676L15.6973 158.62C16.2594 153.561 16.6545 146.736 16.8809 138.135V126.091ZM65.1406 127.621V145.641H36.5811V127.621H65.1406ZM113.761 127.621V145.641H84.0107V127.621H113.761ZM85.0107 144.641H112.761V128.621H85.0107V144.641ZM37.5811 144.641H64.1406V128.621H37.5811V144.641ZM65.1406 105.351V123.031H36.5811V105.351H65.1406ZM113.761 105.351V123.031H84.0107V105.351H113.761ZM85.0107 122.031H112.761V106.351H85.0107V122.031ZM37.5811 122.031H64.1406V106.351H37.5811V122.031ZM88.6006 9.30078C88.6003 8.5075 86.7874 7.54435 83.1611 6.41113C79.5345 5.16448 73.0178 3.57799 63.6113 1.65137C64.4046 6.7513 64.8008 13.3247 64.8008 21.3711H25.3613L25.251 20.6699C24.6799 17.1637 23.8094 13.6576 22.6406 10.1514H20.2607C20.374 14.4577 19.1845 18.5375 16.6914 22.3906C14.3115 26.2438 11.4779 29.0773 8.19141 30.8906L7.79199 31.0869C5.81976 32.0896 4.19589 33.4407 2.9209 35.1406C1.67423 36.8406 1.05078 38.711 1.05078 40.751C1.05078 43.6976 2.01474 46.0207 3.94141 47.7207C5.74754 49.2081 7.85215 49.9988 10.2559 50.0918L10.7412 50.1006C12.8945 50.1005 14.8781 49.4781 16.6914 48.2314C19.3477 46.5314 21.5059 43.9843 23.166 40.5908L23.4912 39.9014C25.1912 36.048 25.9844 31.5141 25.8711 26.3008H125.321C124.641 31.7408 123.621 37.1811 122.261 42.6211C118.294 39.2212 112.855 34.8577 105.941 29.5312L96.9307 40.751H49.3311L46.0771 40.6553C38.6272 40.4074 32.1749 39.9856 26.7207 39.3906L30.9707 47.8906C39.9239 46.4173 48.4241 45.6241 56.4707 45.5107H118.181C120.107 45.5107 121.354 45.0578 121.921 44.1514L121.751 45.5107L123.111 46.5312C126.086 44.8455 129.278 42.7253 132.687 40.1719L134.161 39.0508C138.128 35.8775 141.528 32.8743 144.361 30.041C145.948 29.8427 147.188 29.6446 148.08 29.4463L148.441 29.3613C149.348 29.1346 150.085 28.6809 150.651 28.001C150.651 27.3068 149.74 25.8752 147.918 23.7061L147.081 22.7314C144.999 20.3515 142.786 18.0579 140.443 15.8516L139.431 14.9111C136.711 12.4179 135.011 11.171 134.331 11.1709C133.878 11.1709 133.367 11.4539 132.801 12.0205C132.234 12.4738 131.497 13.2114 130.591 14.2314L128.551 16.2705L124.131 21.3711H84.6914V12.7012L87.4111 10.8311C88.2044 10.2644 88.6006 9.7541 88.6006 9.30078ZM100.841 63.3613V81.041H50.6914V63.3613H100.841ZM51.6914 80.041H99.8408V64.3613H51.6914V80.041ZM26.8818 27.3008C26.8791 31.324 26.3266 34.9674 25.2148 38.2207L26.8291 38.3965C33.0263 39.0725 40.534 39.5248 49.3564 39.751H96.4521L105.775 28.1406L106.552 28.7393C112.779 33.5375 117.82 37.5623 121.672 40.8096C122.743 36.3056 123.581 31.8029 124.183 27.3008H26.8818ZM17.8809 138.161C17.6542 146.774 17.2581 153.631 16.6914 158.731L16.7041 159.065C16.766 159.834 17.0451 160.516 17.541 161.111C18.2209 161.791 19.1843 162.131 20.4307 162.131C22.8107 162.131 25.2479 161.735 27.7412 160.941C30.3478 160.261 32.4446 159.411 34.0312 158.391C35.6249 157.541 36.4718 156.79 36.5713 156.14L36.5811 156.011V150.401H113.761V153.971C113.307 156.237 113.081 157.371 113.081 157.371L113.085 157.58C113.159 159.57 114.303 160.629 116.518 160.758L116.991 160.771C119.824 160.77 123.168 160.091 127.021 158.731C130.739 157.563 133.014 156.493 133.844 155.523L133.991 155.331C133.538 148.078 133.141 137.821 132.801 124.561V108.751C135.861 107.958 138.014 106.711 139.261 105.011C139.26 104.217 137.957 102.687 135.351 100.421C132.744 98.041 129.91 95.7744 126.851 93.6211C124.088 91.6024 122.322 90.5294 121.552 90.4033L121.411 90.3906C120.958 90.3906 120.448 90.618 119.881 91.0713L119.509 91.4639C119.105 91.9101 118.606 92.5163 118.011 93.2812C117.218 94.1878 116.594 94.9246 116.141 95.4912L112.231 100.591H38.1113L15.6709 91.2412C17.1442 100.194 17.8809 111.811 17.8809 126.091V138.161ZM32.1611 79.6807L31.9912 83.251L31.9434 84.1514C31.8194 86.2711 31.608 88.5213 31.3105 90.9014L31.3213 91.2354C31.3708 92.004 31.5945 92.6862 31.9912 93.2812C32.5225 93.9186 33.3028 94.2571 34.332 94.2969L34.541 94.3008C36.6236 94.3008 38.7496 94.0412 40.9189 93.5205L41.8506 93.2812C44.0325 92.6862 45.911 92.004 47.4854 91.2354L48.1406 90.9014C49.7343 89.9452 50.581 89.1877 50.6807 88.6299L50.6914 88.5205V85.8008H100.841V91.9209H104.071L104.607 91.9141C107.317 91.841 110.424 91.2195 113.931 90.0508C117.664 88.8431 119.802 87.7421 120.344 86.7471L120.391 86.6514C120.164 83.2514 120.051 80.8142 120.051 79.3408L119.711 73.3906V66.251C122.204 65.6843 124.188 64.5506 125.661 62.8506C125.661 62.0572 124.357 60.5836 121.751 58.4307C119.258 56.1641 116.537 54.0673 113.591 52.1406C110.829 50.2284 109.062 49.2124 108.292 49.0928L108.151 49.0811C107.698 49.0811 107.188 49.3075 106.621 49.7607L106.249 50.1436C105.845 50.5685 105.346 51.1209 104.751 51.8008C103.958 52.7074 103.391 53.3875 103.051 53.8408L99.1406 58.6006H51.7109L30.8008 49.7607C31.7074 55.3141 32.1611 62.8511 32.1611 72.3711V79.6807ZM89.6006 9.30078C89.6006 9.82706 89.3711 10.2798 89.0928 10.6377C88.8131 10.9972 88.4317 11.3306 87.9922 11.6445L87.9854 11.6504L87.9775 11.6553L85.6914 13.2266V20.3711H123.674L127.795 15.6162L127.818 15.5889L127.844 15.5635C127.845 15.5627 127.846 15.5623 127.847 15.5615L127.85 15.5586C127.85 15.5578 127.851 15.5565 127.852 15.5557L127.854 15.5527C127.855 15.5519 127.857 15.5516 127.857 15.5508L127.86 15.5479C127.861 15.547 127.861 15.5457 127.862 15.5449L127.865 15.542C127.866 15.5412 127.867 15.5409 127.868 15.54L127.871 15.5371C127.872 15.5363 127.872 15.535 127.873 15.5342L127.876 15.5312C127.877 15.5304 127.878 15.5301 127.879 15.5293L127.885 15.5234C127.886 15.5226 127.886 15.5213 127.887 15.5205L127.89 15.5176C127.89 15.5168 127.892 15.5164 127.893 15.5156L127.898 15.5098C127.899 15.509 127.9 15.5077 127.9 15.5068L127.906 15.501C127.907 15.5002 127.908 15.4998 127.909 15.499L127.918 15.4902C127.919 15.4894 127.919 15.4881 127.92 15.4873L127.926 15.4814C127.927 15.4806 127.928 15.4803 127.929 15.4795L127.94 15.4678C127.941 15.467 127.942 15.4657 127.942 15.4648L127.96 15.4473C127.961 15.4465 127.962 15.4461 127.963 15.4453L128.019 15.3896C128.02 15.3887 128.02 15.3867 128.021 15.3857L128.039 15.3682C128.04 15.3672 128.042 15.3662 128.043 15.3652L128.055 15.3535C128.056 15.3525 128.057 15.3506 128.058 15.3496L128.066 15.3408C128.067 15.3398 128.069 15.3389 128.07 15.3379L128.076 15.332C128.077 15.331 128.078 15.3292 128.079 15.3281L128.085 15.3223C128.086 15.3212 128.088 15.3204 128.089 15.3193L128.095 15.3135C128.096 15.3124 128.097 15.3106 128.098 15.3096L128.104 15.3037C128.105 15.3027 128.106 15.3018 128.107 15.3008L128.11 15.2979C128.111 15.2968 128.112 15.295 128.113 15.2939L128.116 15.291C128.117 15.29 128.119 15.2891 128.12 15.2881L128.126 15.2822C128.127 15.2812 128.128 15.2794 128.129 15.2783L128.132 15.2754C128.133 15.2743 128.135 15.2735 128.136 15.2725L128.139 15.2695C128.14 15.2685 128.141 15.2667 128.142 15.2656L128.145 15.2627C128.146 15.2616 128.147 15.2608 128.148 15.2598L128.151 15.2568C128.152 15.2558 128.153 15.254 128.154 15.2529C128.155 15.2519 128.157 15.2511 128.158 15.25L128.161 15.2471C128.162 15.246 128.163 15.2442 128.164 15.2432L128.167 15.2402C128.168 15.2392 128.17 15.2384 128.171 15.2373C128.172 15.2362 128.173 15.2345 128.174 15.2334L128.177 15.2305C128.178 15.2294 128.18 15.2286 128.181 15.2275C128.182 15.2265 128.183 15.2247 128.184 15.2236L128.187 15.2207C128.188 15.2196 128.189 15.2189 128.19 15.2178C128.192 15.2167 128.192 15.2149 128.193 15.2139L128.196 15.2109C128.197 15.2099 128.199 15.2091 128.2 15.208C128.201 15.2069 128.202 15.2052 128.203 15.2041C128.204 15.203 128.206 15.2022 128.207 15.2012L128.21 15.1982C128.211 15.1971 128.212 15.1954 128.213 15.1943C128.214 15.1932 128.216 15.1925 128.217 15.1914L128.22 15.1885C128.221 15.1874 128.222 15.1856 128.223 15.1846C128.224 15.1835 128.225 15.1827 128.227 15.1816C128.228 15.1805 128.228 15.1788 128.229 15.1777C128.231 15.1766 128.232 15.1759 128.233 15.1748C128.234 15.1737 128.235 15.172 128.236 15.1709L128.239 15.168C128.24 15.1669 128.242 15.1661 128.243 15.165C128.244 15.1639 128.245 15.1622 128.246 15.1611C128.247 15.16 128.249 15.1593 128.25 15.1582C128.251 15.1571 128.252 15.1554 128.253 15.1543C128.254 15.1532 128.256 15.1525 128.257 15.1514C128.258 15.1503 128.259 15.1485 128.26 15.1475C128.261 15.1464 128.263 15.1456 128.264 15.1445L128.267 15.1416C128.268 15.1405 128.268 15.1388 128.27 15.1377C128.271 15.1366 128.272 15.1358 128.273 15.1348C128.275 15.1337 128.275 15.1319 128.276 15.1309C128.277 15.1298 128.279 15.129 128.28 15.1279C128.281 15.1268 128.282 15.1251 128.283 15.124C128.284 15.1229 128.286 15.1222 128.287 15.1211C128.288 15.12 128.289 15.1183 128.29 15.1172C128.291 15.1161 128.293 15.1154 128.294 15.1143C128.295 15.1132 128.296 15.1115 128.297 15.1104C128.298 15.1093 128.3 15.1085 128.301 15.1074C128.302 15.1063 128.303 15.1046 128.304 15.1035C128.305 15.1024 128.307 15.1017 128.308 15.1006C128.309 15.0995 128.309 15.0978 128.311 15.0967C128.312 15.0956 128.313 15.0948 128.314 15.0938L128.318 15.0898C128.319 15.0888 128.32 15.087 128.321 15.0859C128.322 15.0848 128.324 15.0841 128.325 15.083C128.326 15.0819 128.327 15.0802 128.328 15.0791C128.329 15.078 128.331 15.0773 128.332 15.0762C128.333 15.075 128.334 15.0734 128.335 15.0723C128.336 15.0711 128.338 15.0705 128.339 15.0693C128.34 15.0682 128.341 15.0665 128.342 15.0654L128.346 15.0615C128.347 15.0604 128.349 15.0597 128.35 15.0586C128.351 15.0575 128.351 15.0558 128.353 15.0547C128.354 15.0535 128.355 15.0529 128.356 15.0518C128.358 15.0506 128.358 15.049 128.359 15.0479L128.363 15.0439C128.364 15.0428 128.366 15.0421 128.367 15.041C128.368 15.0399 128.369 15.0382 128.37 15.0371C128.371 15.036 128.373 15.0353 128.374 15.0342L128.378 15.0303C128.379 15.0292 128.38 15.0275 128.381 15.0264C128.382 15.0252 128.384 15.0246 128.385 15.0234C128.386 15.0223 128.387 15.0206 128.388 15.0195L128.392 15.0156C128.393 15.0145 128.394 15.0138 128.396 15.0127C128.397 15.0116 128.397 15.0099 128.398 15.0088L128.402 15.0049C128.403 15.0037 128.405 15.0031 128.406 15.002C128.407 15.0008 128.408 14.9992 128.409 14.998L128.413 14.9941C128.414 14.993 128.416 14.9924 128.417 14.9912L128.421 14.9873C128.422 14.9862 128.423 14.9845 128.424 14.9834C128.425 14.9823 128.427 14.9816 128.428 14.9805L128.432 14.9766C128.433 14.9754 128.433 14.9738 128.435 14.9727L128.438 14.9688C128.44 14.9676 128.441 14.967 128.442 14.9658L128.446 14.9619C128.447 14.9608 128.448 14.9591 128.449 14.958L128.453 14.9541C128.454 14.953 128.456 14.9523 128.457 14.9512L128.461 14.9473C128.462 14.9461 128.463 14.9445 128.464 14.9434L128.468 14.9395C128.469 14.9383 128.471 14.9377 128.472 14.9365L128.476 14.9326C128.477 14.9315 128.477 14.9299 128.479 14.9287L128.482 14.9248C128.484 14.9237 128.485 14.923 128.486 14.9219L128.494 14.9141C128.495 14.9129 128.496 14.9113 128.497 14.9102L128.501 14.9062C128.502 14.9051 128.504 14.9045 128.505 14.9033L128.513 14.8955C128.514 14.8944 128.514 14.8927 128.516 14.8916L128.523 14.8838C128.525 14.8827 128.526 14.882 128.527 14.8809L128.539 14.8691C128.54 14.868 128.541 14.8664 128.542 14.8652L128.554 14.8535C128.555 14.8524 128.556 14.8517 128.558 14.8506L128.577 14.8311C128.578 14.8299 128.579 14.8283 128.58 14.8271L128.607 14.7998C128.609 14.7987 128.61 14.798 128.611 14.7969L128.654 14.7539C128.656 14.7526 128.657 14.7503 128.658 14.749L128.689 14.7178C128.691 14.7164 128.693 14.7152 128.694 14.7139L128.714 14.6943C128.715 14.693 128.716 14.6908 128.718 14.6895L128.729 14.6777C128.731 14.6764 128.733 14.6752 128.734 14.6738L128.746 14.6621C128.747 14.6608 128.749 14.6586 128.75 14.6572L128.758 14.6494C128.759 14.6481 128.761 14.6469 128.763 14.6455L128.771 14.6377C128.772 14.6363 128.773 14.6342 128.774 14.6328L128.778 14.6289C128.78 14.6275 128.782 14.6264 128.783 14.625L128.791 14.6172C128.792 14.6158 128.794 14.6137 128.795 14.6123L128.799 14.6084C128.8 14.607 128.802 14.6059 128.804 14.6045L128.808 14.6006C128.809 14.5992 128.81 14.5971 128.812 14.5957L128.815 14.5918C128.817 14.5904 128.819 14.5893 128.82 14.5879L128.824 14.584C128.826 14.5826 128.827 14.5805 128.828 14.5791L128.832 14.5752C128.833 14.5738 128.836 14.5727 128.837 14.5713L128.841 14.5674C128.842 14.566 128.843 14.5639 128.845 14.5625L128.849 14.5586C128.85 14.5572 128.852 14.5561 128.854 14.5547L128.857 14.5508C128.859 14.5494 128.86 14.5473 128.861 14.5459C128.863 14.5445 128.865 14.5434 128.866 14.542L128.87 14.5381C128.872 14.5367 128.873 14.5346 128.874 14.5332C128.875 14.5318 128.878 14.5307 128.879 14.5293L128.883 14.5254C128.884 14.524 128.885 14.5219 128.887 14.5205L128.891 14.5166C128.892 14.5152 128.894 14.5141 128.896 14.5127C128.897 14.5113 128.898 14.5092 128.899 14.5078C128.901 14.5064 128.903 14.5053 128.904 14.5039L128.908 14.5C128.91 14.4986 128.911 14.4965 128.912 14.4951C128.914 14.4937 128.916 14.4926 128.917 14.4912L128.921 14.4873C128.922 14.4859 128.923 14.4838 128.925 14.4824C128.926 14.481 128.928 14.4799 128.93 14.4785C128.931 14.4771 128.932 14.475 128.934 14.4736L128.938 14.4697C128.939 14.4683 128.941 14.4672 128.942 14.4658C128.944 14.4644 128.945 14.4624 128.946 14.4609C128.948 14.4595 128.95 14.4585 128.951 14.457C128.953 14.4556 128.954 14.4536 128.955 14.4521C128.956 14.4508 128.959 14.4496 128.96 14.4482L128.964 14.4443C128.965 14.4429 128.966 14.4409 128.968 14.4395C128.969 14.438 128.971 14.437 128.973 14.4355C128.974 14.4341 128.975 14.4321 128.977 14.4307C128.978 14.4292 128.98 14.4282 128.981 14.4268C128.983 14.4253 128.984 14.4233 128.985 14.4219C128.987 14.4205 128.989 14.4194 128.99 14.418C128.992 14.4166 128.993 14.4145 128.994 14.4131C128.996 14.4117 128.998 14.4106 128.999 14.4092L129.003 14.4053C129.004 14.4039 129.005 14.4018 129.007 14.4004C129.008 14.399 129.01 14.3979 129.012 14.3965C129.013 14.3951 129.014 14.393 129.016 14.3916C129.017 14.3902 129.019 14.3891 129.021 14.3877C129.022 14.3863 129.023 14.3842 129.024 14.3828C129.026 14.3814 129.028 14.3803 129.029 14.3789C129.031 14.3775 129.032 14.3754 129.033 14.374C129.035 14.3726 129.037 14.3715 129.038 14.3701C129.039 14.3687 129.041 14.3666 129.042 14.3652C129.043 14.3638 129.045 14.3627 129.047 14.3613L129.052 14.3564C129.053 14.355 129.054 14.353 129.056 14.3516C129.057 14.3502 129.059 14.3491 129.061 14.3477C129.062 14.3462 129.063 14.3442 129.064 14.3428C129.066 14.3413 129.068 14.3403 129.069 14.3389C129.071 14.3374 129.072 14.3354 129.073 14.334C129.075 14.3325 129.077 14.3315 129.078 14.3301C129.08 14.3286 129.081 14.3266 129.082 14.3252C129.083 14.3238 129.085 14.3227 129.087 14.3213L129.092 14.3164C129.093 14.315 129.094 14.3129 129.096 14.3115C129.097 14.3101 129.099 14.3091 129.101 14.3076C129.102 14.3062 129.103 14.3042 129.104 14.3027C129.106 14.3013 129.108 14.3003 129.109 14.2988C129.111 14.2974 129.112 14.2954 129.113 14.2939L129.118 14.2891C129.12 14.2876 129.122 14.2866 129.123 14.2852C129.125 14.2837 129.125 14.2817 129.127 14.2803C129.128 14.2788 129.13 14.2778 129.132 14.2764L129.137 14.2715C129.138 14.27 129.139 14.2681 129.141 14.2666C129.142 14.2651 129.144 14.2642 129.146 14.2627L129.15 14.2578C129.152 14.2564 129.153 14.2544 129.154 14.2529C129.156 14.2515 129.158 14.2505 129.159 14.249C129.161 14.2476 129.162 14.2456 129.163 14.2441L129.168 14.2393C129.169 14.2378 129.171 14.2368 129.173 14.2354C129.174 14.2339 129.175 14.2319 129.177 14.2305L129.182 14.2256C129.183 14.2241 129.185 14.2231 129.187 14.2217L129.191 14.2168C129.193 14.2153 129.194 14.2134 129.195 14.2119C129.197 14.2105 129.199 14.2095 129.2 14.208L129.205 14.2031C129.207 14.2017 129.208 14.1997 129.209 14.1982L129.214 14.1934C129.215 14.1919 129.217 14.1909 129.219 14.1895L129.224 14.1846C129.225 14.1831 129.226 14.1812 129.228 14.1797L129.232 14.1748C129.234 14.1733 129.236 14.1724 129.237 14.1709L129.242 14.166C129.244 14.1646 129.245 14.1626 129.246 14.1611L129.251 14.1562C129.252 14.1548 129.254 14.1538 129.256 14.1523L129.261 14.1475C129.262 14.146 129.263 14.144 129.265 14.1426L129.27 14.1377C129.271 14.1362 129.273 14.1353 129.274 14.1338L129.284 14.124C129.286 14.1226 129.287 14.1206 129.288 14.1191L129.293 14.1143C129.294 14.1128 129.296 14.1118 129.298 14.1104L129.308 14.1006C129.309 14.0991 129.31 14.0972 129.312 14.0957L129.321 14.0859C129.323 14.0845 129.325 14.0835 129.326 14.082L129.341 14.0674C129.342 14.0659 129.343 14.064 129.345 14.0625L129.359 14.0479C129.361 14.0464 129.363 14.0454 129.364 14.0439L129.384 14.0244C129.385 14.0229 129.386 14.021 129.388 14.0195L129.422 13.9854C129.423 13.9839 129.425 13.9829 129.427 13.9814L129.495 13.9131C129.497 13.9114 129.498 13.9089 129.5 13.9072L129.534 13.873C129.536 13.8714 129.538 13.8698 129.54 13.8682L129.564 13.8438C129.566 13.8421 129.568 13.8396 129.569 13.8379L129.579 13.8281C129.581 13.8265 129.583 13.8249 129.585 13.8232L129.6 13.8086C129.601 13.8069 129.603 13.8044 129.604 13.8027L129.614 13.793C129.616 13.7913 129.618 13.7898 129.62 13.7881L129.63 13.7783C129.632 13.7766 129.633 13.7741 129.635 13.7725L129.645 13.7627C129.646 13.761 129.649 13.7595 129.65 13.7578L129.655 13.7529C129.657 13.7512 129.658 13.7488 129.66 13.7471L129.665 13.7422C129.667 13.7405 129.669 13.739 129.671 13.7373L129.681 13.7275C129.682 13.7258 129.684 13.7234 129.686 13.7217L129.69 13.7168C129.692 13.7151 129.695 13.7136 129.696 13.7119L129.701 13.707C129.703 13.7053 129.704 13.7029 129.706 13.7012L129.711 13.6963C129.713 13.6946 129.715 13.6931 129.717 13.6914L129.722 13.6865C129.723 13.6848 129.725 13.6824 129.727 13.6807C129.728 13.6789 129.731 13.6775 129.732 13.6758L129.737 13.6709C129.739 13.6692 129.74 13.6668 129.742 13.665L129.747 13.6602C129.749 13.6584 129.751 13.657 129.753 13.6553C129.755 13.6536 129.756 13.6511 129.758 13.6494L129.763 13.6445C129.764 13.6428 129.767 13.6414 129.769 13.6396L129.773 13.6348C129.775 13.6331 129.777 13.6306 129.778 13.6289C129.78 13.6272 129.782 13.6258 129.784 13.624C129.786 13.6223 129.787 13.6199 129.789 13.6182L129.794 13.6133C129.796 13.6115 129.798 13.6101 129.8 13.6084C129.802 13.6067 129.803 13.6043 129.805 13.6025L129.81 13.5977C129.811 13.5959 129.814 13.5945 129.815 13.5928C129.817 13.591 129.819 13.5887 129.82 13.5869C129.822 13.5852 129.824 13.5838 129.826 13.582L129.831 13.5771C129.833 13.5754 129.834 13.573 129.836 13.5713C129.838 13.5695 129.84 13.5682 129.842 13.5664C129.844 13.5647 129.845 13.5623 129.847 13.5605C129.848 13.5588 129.851 13.5574 129.853 13.5557L129.857 13.5508C129.859 13.5491 129.861 13.5467 129.862 13.5449C129.864 13.5432 129.866 13.5418 129.868 13.54C129.87 13.5383 129.871 13.5359 129.873 13.5342C130.755 12.5434 131.512 11.7807 132.13 11.2783C132.745 10.6726 133.487 10.1709 134.331 10.1709L134.489 10.1787C134.857 10.2148 135.21 10.3688 135.496 10.5186C135.856 10.7068 136.262 10.9732 136.707 11.2998C137.6 11.9548 138.736 12.9179 140.106 14.1738C142.853 16.6914 145.429 19.3241 147.834 22.0723C149.035 23.4447 149.957 24.5996 150.586 25.5273C150.9 25.9907 151.155 26.4184 151.334 26.8027C151.504 27.1668 151.651 27.584 151.651 28.001V28.3633L151.419 28.6416C150.709 29.4937 149.784 30.056 148.684 30.3311C147.777 30.5576 146.483 30.7732 144.823 30.9873C142.008 33.781 138.662 36.731 134.786 39.832L134.778 39.8369L134.771 39.8428C130.777 42.9239 127.054 45.446 123.604 47.4014L123.034 47.7236L121.151 46.3105L120.889 46.1143C120.102 46.3966 119.174 46.5107 118.181 46.5107H56.4854L54.9814 46.54C47.4678 46.7239 39.5541 47.4965 31.2393 48.8604L51.9131 57.6006H98.668L102.278 53.2061C102.644 52.7222 103.222 52.0301 103.998 51.1426C104.796 50.231 105.437 49.5309 105.914 49.0537L105.953 49.0146L105.996 48.9805C106.641 48.4648 107.37 48.0811 108.151 48.0811C108.524 48.0811 108.915 48.2088 109.252 48.3467C109.617 48.4958 110.039 48.709 110.512 48.9746C111.453 49.5043 112.665 50.2842 114.139 51.3037L115.248 52.0449C117.806 53.7881 120.191 55.6646 122.403 57.6738C123.715 58.7581 124.733 59.6979 125.433 60.4883C125.783 60.8845 126.074 61.2667 126.283 61.6299C126.483 61.9772 126.661 62.3985 126.661 62.8506V63.2236L126.417 63.5059C124.947 65.2018 123.03 66.3659 120.711 67.0244V73.3672L121.05 79.2842L121.051 79.3125V79.3408C121.051 80.7778 121.162 83.1853 121.389 86.584L121.405 86.8311L121.305 87.0566C121.105 87.507 120.758 87.8866 120.369 88.208C119.973 88.5354 119.476 88.8487 118.901 89.1514C117.753 89.7555 116.193 90.369 114.246 90.999L114.247 91C110.442 92.2683 107.045 92.9209 104.071 92.9209H99.8408V86.8008H51.6914V88.5205C51.6914 88.912 51.5461 89.2525 51.3799 89.5186C51.2118 89.7875 50.9857 90.0388 50.7354 90.2725C50.2356 90.7388 49.5295 91.2343 48.6553 91.7588L48.6338 91.7715L48.6113 91.7832C46.8275 92.7345 44.6568 93.5527 42.1143 94.2461C39.5425 94.9475 37.0172 95.3008 34.541 95.3008C33.2007 95.3008 32.0302 94.8899 31.2227 93.9209L31.1885 93.8799L31.1592 93.8359C30.5846 92.974 30.3106 91.9829 30.3105 90.9014V90.8389L30.3184 90.7773C30.6556 88.0791 30.8802 85.5541 30.9922 83.2031L31.1611 79.6543V72.3711C31.1611 62.8736 30.7085 55.398 29.8145 49.9219L29.5225 48.1348L30.0957 48.377L25.1338 38.4531C24.9114 39.0848 24.6717 39.703 24.4062 40.3047L24.4014 40.3145C22.6394 44.1909 20.2589 47.1349 17.2305 49.0732L17.2295 49.0723C15.2606 50.4185 13.0906 51.1005 10.7412 51.1006C7.91392 51.1006 5.41972 50.234 3.30566 48.4932L3.29199 48.4824L3.2793 48.4707C1.10487 46.552 0.0507812 43.9378 0.0507812 40.751C0.0507812 38.4909 0.746445 36.4151 2.11426 34.5498L2.12109 34.541C3.57539 32.602 5.44958 31.0904 7.72461 30.0059C10.8253 28.2908 13.5358 25.5956 15.8398 21.8652L15.8516 21.8477C18.2427 18.1522 19.3693 14.2691 19.2617 10.1777L19.2344 9.15137H23.3613L23.5898 9.83496C24.7595 13.3439 25.6336 16.8562 26.2139 20.3711H63.7979C63.7661 12.8074 63.3726 6.62329 62.623 1.80469L62.4014 0.382812L63.8115 0.670898C73.2139 2.59668 79.788 4.1939 83.4834 5.46387C85.3035 6.0335 86.7251 6.57739 87.71 7.10059C88.2013 7.3616 88.6342 7.6433 88.957 7.95605C89.2666 8.25604 89.6005 8.70854 89.6006 9.30078Z" fill="black"/>
</svg>
